# File created by Blade
# Date/Time:  Fri Jan 16 17:18:57 2015
#---------------------------------------------------------
:version 1.10
:name HOM
:units
  mass 1.0
  length 1.000000
  angle deg
:documentation
     Acclaim Skeleton File
:root
   axis xyz
   order TX TY TZ RX RY RZ
   position 0.000000 0.000000 0.000000
   orientation 0 0 0
:bonedata
   begin
      id 1
      name Spine_dum
      direction 0.000000 1.000000 0.000000
      length 7.170412
      axis 0.0 0.0 0.0 xyz
   end
   begin
      id 2
      name LeftUpLeg_dum
      direction 1.000000 0.000000 0.000000
      length 4.318350
      axis 0.0 0.0 0.0 xyz
   end
   begin
      id 3
      name RightUpLeg_dum
      direction -1.000000 0.000000 0.000000
      length 4.318350
      axis 0.0 0.0 0.0 xyz
   end
   begin
      id 4
      name Spine
      direction 0.000000 1.000000 0.000000
      length 0.000000
      axis 0.0 0.0 0.0 xyz
      dof rx ry rz
   end
   begin
      id 5
      name Spine_dum1
      direction 0.000000 1.000000 0.000000
      length 14.276153
      axis 0.0 0.0 0.0 xyz
   end
   begin
      id 6
      name Spine_dum2
      direction 0.000000 1.000000 0.000000
      length 10.718243
      axis 0.0 0.0 0.0 xyz
   end
   begin
      id 7
      name Spine_dum3
      direction 0.000000 1.000000 0.000000
      length 10.718243
      axis 0.0 0.0 0.0 xyz
   end
   begin
      id 8
      name Head
      direction 0.000000 1.000000 0.000000
      length 4.527550
      axis 0.0 0.0 0.0 xyz
      dof rx ry rz
   end
   begin
      id 9
      name LeftShoulder
      direction 1.000000 0.000000 0.000000
      length 7.058872
      axis 0.0 0.0 -90.0 xyz
      dof rx ry rz
   end
   begin
      id 10
      name LeftArm
      direction 1.000000 0.000000 0.000000
      length 10.955525
      axis 0.0 0.0 -90.0 xyz
      dof rx ry rz
   end
   begin
      id 11
      name LeftForeArm
      direction 1.000000 0.000000 0.000000
      length 8.193716
      axis 0.0 0.0 -90.0 xyz
      dof ry rz rx
   end
   begin
      id 12
      name LeftHand
      direction 0.000000 0.000000 0.000000
      length 0.000000
      axis 0.0 0.0 -90.0 xyz
      dof rx ry rz
   end
   begin
      id 13
      name LeftHand_dum1
      direction 0.000000 0.000000 0.000000
      length 0.000000
      axis 0.0 0.0 -90.0 xyz
   end
   begin
      id 14
      name LeftHand_dum2
      direction 1.000000 0.000000 0.000000
      length 3.937000
      axis 0.0 0.0 -90.0 xyz
   end
   begin
      id 15
      name LeftHandThumb1
      direction 0.000000 0.000000 1.000000
      length 3.937000
      axis 0.0 0.0 -90.0 xyz
      dof rx rz ry
   end
   begin
      id 16
      name RightShoulder
      direction -1.000000 0.000000 0.000000
      length 7.058872
      axis 0.0 0.0 90.0 xyz
      dof rx ry rz
   end
   begin
      id 17
      name RightArm
      direction -1.000000 0.000000 0.000000
      length 10.955525
      axis 0.0 0.0 90.0 xyz
      dof rx ry rz
   end
   begin
      id 18
      name RightForeArm
      direction -1.000000 0.000000 0.000000
      length 8.193716
      axis 0.0 0.0 90.0 xyz
      dof ry rz rx
   end
   begin
      id 19
      name RightHand
      direction 0.000000 0.000000 0.000000
      length 0.000000
      axis 0.0 0.0 90.0 xyz
      dof rx ry rz
   end
   begin
      id 20
      name RightHand_dum1
      direction 0.000000 0.000000 0.000000
      length 0.000000
      axis 0.0 0.0 90.0 xyz
   end
   begin
      id 21
      name RightHand_dum2
      direction -1.000000 0.000000 0.000000
      length 3.937000
      axis 0.0 0.0 90.0 xyz
   end
   begin
      id 22
      name RightHandThumb1
      direction 0.000000 0.000000 1.000000
      length 3.937000
      axis 0.0 0.0 90.0 xyz
      dof rx rz ry
   end
   begin
      id 23
      name LeftUpLeg
      direction 0.000000 -1.000000 0.000000
      length 17.323638
      axis 0.0 0.0 0.0 xyz
      dof rx ry rz
   end
   begin
      id 24
      name LeftLeg
      direction 0.000000 -1.000000 0.000000
      length 16.270368
      axis 0.0 0.0 0.0 xyz
      dof rx ry rz
   end
   begin
      id 25
      name LeftFoot
      direction 0.000000 -0.258819 0.965926
      length 4.922846
      axis 15.0 0.0 0.0 xyz
      dof rx ry rz
   end
   begin
      id 26
      name LeftToeBase
      direction 0.000000 0.000000 1.000000
      length 2.952750
      axis 0.0 0.0 0.0 xyz
      dof rx ry rz
   end
   begin
      id 27
      name RightUpLeg
      direction 0.000000 -1.000000 0.000000
      length 17.323638
      axis 0.0 0.0 0.0 xyz
      dof rx ry rz
   end
   begin
      id 28
      name RightLeg
      direction 0.000000 -1.000000 0.000000
      length 16.270368
      axis 0.0 0.0 0.0 xyz
      dof rx ry rz
   end
   begin
      id 29
      name RightFoot
      direction 0.000000 -0.258819 0.965926
      length 4.922846
      axis 15.0 0.0 0.0 xyz
      dof rx ry rz
   end
   begin
      id 30
      name RightToeBase
      direction 0.000000 0.000000 1.000000
      length 2.952750
      axis 0.0 0.0 0.0 xyz
      dof rx ry rz
   end
:hierarchy
   begin
      root Spine_dum LeftUpLeg_dum RightUpLeg_dum
      Spine_dum Spine
      LeftUpLeg_dum LeftUpLeg
      RightUpLeg_dum RightUpLeg
      Spine Spine_dum1 Spine_dum2 Spine_dum3
      Spine_dum1 Head
      Spine_dum2 LeftShoulder
      Spine_dum3 RightShoulder
      LeftShoulder LeftArm
      LeftArm LeftForeArm
      LeftForeArm LeftHand
      LeftHand LeftHand_dum1 LeftHand_dum2
      LeftHand_dum1 LeftHandThumb1
      RightShoulder RightArm
      RightArm RightForeArm
      RightForeArm RightHand
      RightHand RightHand_dum1 RightHand_dum2
      RightHand_dum1 RightHandThumb1
      LeftUpLeg LeftLeg
      LeftLeg LeftFoot
      LeftFoot LeftToeBase
      RightUpLeg RightLeg
      RightLeg RightFoot
      RightFoot RightToeBase
   end

# File created by Blade
# Date/Time:  Fri Jan 16 17:19:08 2015
# Frame Rate: 120.000 fps
#------------------------------------------------------
:FULLY-SPECIFIED
:DEGREES
1769
root -5.359332 35.185828 -9.368877 -1.180897 -6.103731 -6.218093
Spine -1.572995 1.406637 10.710641
Head 5.903638 -5.060694 -11.934129
LeftShoulder -19.671683 13.524018 -17.070381
LeftArm 21.016380 -6.786288 -73.365675
LeftForeArm 14.570560 0.000000 9.200473
LeftHand 0.415369 0.000000 -6.129077
LeftHandThumb1 -26.253704 0.000000 33.147579
RightShoulder -5.339825 13.707277 -8.910734
RightArm 1.529415 70.477520 46.962206
RightForeArm 44.369127 -0.000000 152.401951
RightHand 27.985820 -0.000000 9.997635
RightHandThumb1 -24.326973 -0.000000 -32.862282
LeftUpLeg 12.620890 14.455619 7.364457
LeftLeg -9.504831 -0.000000 0.000000
LeftFoot -16.451368 28.472707 -8.476125
LeftToeBase 22.748123 -0.000000 -0.000000
RightUpLeg 9.023446 -3.656003 4.376675
RightLeg -5.252118 -0.000000 0.000000
RightFoot -4.464202 -28.311486 3.733515
RightToeBase 13.684922 -0.000000 -0.000000
1770
root -5.359118 35.185868 -9.369790 -1.184407 -6.100889 -6.217247
Spine -1.572432 1.428983 10.706394
Head 5.893983 -5.050873 -11.949795
LeftShoulder -19.707736 13.510832 -17.078843
LeftArm 21.039451 -6.779727 -73.346780
LeftForeArm 14.502833 -0.000000 9.238780
LeftHand 0.436570 0.000000 -6.091595
LeftHandThumb1 -26.253704 0.000000 33.147579
RightShoulder -5.260834 13.655951 -8.871557
RightArm 1.414978 70.601387 46.894394
RightForeArm 44.707410 -0.000000 152.007433
RightHand 27.892198 -0.000000 10.181828
RightHandThumb1 -24.326973 -0.000000 -32.862282
LeftUpLeg 12.623580 14.437572 7.361002
LeftLeg -9.510359 -0.000000 0.000000
LeftFoot -16.449414 28.488812 -8.475619
LeftToeBase 22.741500 -0.000000 -0.000000
RightUpLeg 9.027732 -3.663737 4.373864
RightLeg -5.257728 -0.000000 0.000000
RightFoot -4.452590 -28.305058 3.712475
RightToeBase 13.682613 -0.000000 -0.000000
1771
root -5.358838 35.186029 -9.374530 -1.165314 -6.076152 -6.216020
Spine -1.594858 1.450304 10.696016
Head 5.883049 -5.054529 -11.962216
LeftShoulder -19.712108 13.518218 -17.087541
LeftArm 21.056585 -6.786470 -73.329814
LeftForeArm 14.414515 -0.000000 9.316602
LeftHand 0.464980 -0.000000 -6.057678
LeftHandThumb1 -26.253704 0.000000 33.147579
RightShoulder -5.176725 13.618847 -8.809981
RightArm 1.168522 70.729282 46.693986
RightForeArm 44.995639 -0.000000 151.520475
RightHand 27.791316 -0.000000 10.388237
RightHandThumb1 -24.326973 -0.000000 -32.862282
LeftUpLeg 12.586153 14.501680 7.362890
LeftLeg -9.507062 -0.000000 0.000000
LeftFoot -16.418216 28.428885 -8.429830
LeftToeBase 22.726044 -0.000000 -0.000000
RightUpLeg 8.998353 -3.671932 4.376268
RightLeg -5.249793 -0.000000 0.000000
RightFoot -4.459215 -28.315300 3.713984
RightToeBase 13.698462 -0.000000 -0.000000
1772
root -5.358626 35.186112 -9.376571 -1.160260 -6.068638 -6.217445
Spine -1.605935 1.476180 10.688543
Head 5.881407 -5.047734 -11.955987
LeftShoulder -19.722458 13.532893 -17.096268
LeftArm 21.080303 -6.779237 -73.306598
LeftForeArm 14.365138 -0.000000 9.385659
LeftHand 0.447106 0.000000 -6.077911
LeftHandThumb1 -26.253704 0.000000 33.147579
RightShoulder -5.073347 13.550333 -8.725249
RightArm 0.940901 70.884990 46.497277
RightForeArm 45.414451 -0.000000 150.933640
RightHand 27.564539 -0.000000 10.650802
RightHandThumb1 -24.326973 -0.000000 -32.862282
LeftUpLeg 12.569457 14.501450 7.361480
LeftLeg -9.492223 -0.000000 0.000000
LeftFoot -16.423756 28.413995 -8.418026
LeftToeBase 22.759875 -0.000000 -0.000000
RightUpLeg 8.989402 -3.673088 4.379924
RightLeg -5.249052 -0.000000 0.000000
RightFoot -4.451710 -28.331037 3.697847
RightToeBase 13.706779 -0.000000 -0.000000
1773
root -5.358883 35.186244 -9.376911 -1.163248 -6.066368 -6.218075
Spine -1.612054 1.519765 10.678417
Head 5.886319 -5.052285 -11.948606
LeftShoulder -19.720024 13.528357 -17.089635
LeftArm 21.083498 -6.751268 -73.273275
LeftForeArm 14.306385 -0.000000 9.433070
LeftHand 0.472591 -0.000000 -6.085062
LeftHandThumb1 -26.253704 0.000000 33.147579
RightShoulder -4.975494 13.553224 -8.653060
RightArm 0.385682 70.948450 46.019776
RightForeArm 45.729540 -0.000000 150.233475
RightHand 27.404223 0.000000 10.827325
RightHandThumb1 -24.326973 -0.000000 -32.862282
LeftUpLeg 12.573185 14.494668 7.363005
LeftLeg -9.497146 -0.000000 0.000000
LeftFoot -16.422668 28.426375 -8.431475
LeftToeBase 22.741082 -0.000000 -0.000000
RightUpLeg 8.993179 -3.685417 4.378243
RightLeg -5.251444 -0.000000 0.000000
RightFoot -4.445227 -28.321964 3.711216
RightToeBase 13.652220 -0.000000 -0.000000
1774
root -5.359441 35.185712 -9.376905 -1.164240 -6.066749 -6.220642
Spine -1.623591 1.556674 10.672388
Head 5.900902 -5.042351 -11.945534
LeftShoulder -19.726434 13.553524 -17.095518
LeftArm 21.113130 -6.741061 -73.247448
LeftForeArm 14.271348 -0.000000 9.491454
LeftHand 0.467679 0.000000 -6.138275
LeftHandThumb1 -26.253704 0.000000 33.147579
RightShoulder -4.868315 13.572553 -8.582856
RightArm -0.273609 70.982452 45.450063
RightForeArm 46.112253 -0.000000 149.433620
RightHand 27.225886 -0.000000 10.935803
RightHandThumb1 -24.326973 -0.000000 -32.862282
LeftUpLeg 12.576828 14.495708 7.367981
LeftLeg -9.499089 -0.000000 0.000000
LeftFoot -16.419398 28.427716 -8.404441
LeftToeBase 22.753098 -0.000000 -0.000000
RightUpLeg 8.995529 -3.688022 4.382171
RightLeg -5.253550 -0.000000 0.000000
RightFoot -4.441783 -28.313933 3.689478
RightToeBase 13.681112 -0.000000 -0.000000
1775
root -5.359222 35.185745 -9.377355 -1.163325 -6.064674 -6.227038
Spine -1.637766 1.583217 10.669874
Head 5.915173 -5.013844 -11.921708
LeftShoulder -19.728625 13.542436 -17.091550
LeftArm 21.106185 -6.703106 -73.210180
LeftForeArm 14.273111 -0.000000 9.537786
LeftHand 0.456251 -0.000000 -6.130836
LeftHandThumb1 -26.253704 0.000000 33.147579
RightShoulder -4.737274 13.570180 -8.492027
RightArm -0.964806 71.071404 44.847079
RightForeArm 46.373123 -0.000000 148.521771
RightHand 26.922721 -0.000000 10.998829
RightHandThumb1 -24.326973 -0.000000 -32.862282
LeftUpLeg 12.578250 14.508446 7.374876
LeftLeg -9.508031 -0.000000 0.000000
LeftFoot -16.414105 28.419759 -8.405079
LeftToeBase 22.734387 -0.000000 -0.000000
RightUpLeg 9.000888 -3.692933 4.385845
RightLeg -5.265920 -0.000000 0.000000
RightFoot -4.435685 -28.297334 3.707464
RightToeBase 13.659683 -0.000000 -0.000000
1776
root -5.358277 35.185434 -9.378198 -1.161578 -6.055847 -6.229722
Spine -1.649297 1.594588 10.665503
Head 5.914973 -5.001694 -11.913613
LeftShoulder -19.754252 13.545646 -17.100106
LeftArm 21.137896 -6.712468 -73.193872
LeftForeArm 14.304669 -0.000000 9.563174
LeftHand 0.464233 -0.000000 -6.142665
LeftHandThumb1 -26.253704 0.000000 33.147579
RightShoulder -4.587542 13.597919 -8.395024
RightArm -1.820300 71.101490 44.074960
RightForeArm 46.614115 -0.000000 147.515756
RightHand 26.487896 -0.000000 10.777015
RightHandThumb1 -24.326973 -0.000000 -32.862282
LeftUpLeg 12.576656 14.494280 7.373637
LeftLeg -9.515945 -0.000000 0.000000
LeftFoot -16.420688 28.421308 -8.400464
LeftToeBase 22.790178 -0.000000 -0.000000
RightUpLeg 9.000559 -3.697823 4.386673
RightLeg -5.269994 -0.000000 0.000000
RightFoot -4.444389 -28.300243 3.726275
RightToeBase 13.679198 -0.000000 -0.000000
1777
root -5.358403 35.185125 -9.378724 -1.157993 -6.057290 -6.233290
Spine -1.666826 1.630471 10.655417
Head 5.925601 -4.990022 -11.887896
LeftShoulder -19.743338 13.552586 -17.085089
LeftArm 21.142941 -6.705858 -73.178193
LeftForeArm 14.343227 -0.000000 9.582871
LeftHand 0.395847 0.000000 -6.261769
LeftHandThumb1 -26.253704 0.000000 33.147579
RightShoulder -4.440186 13.586569 -8.280843
RightArm -2.734397 71.141776 43.252778
RightForeArm 46.629115 -0.000000 146.426589
RightHand 26.209658 -0.000000 10.673945
RightHandThumb1 -24.326973 -0.000000 -32.862282
LeftUpLeg 12.576223 14.504603 7.377578
LeftLeg -9.522322 -0.000000 0.000000
LeftFoot -16.404518 28.422328 -8.371428
LeftToeBase 22.779483 -0.000000 -0.000000
RightUpLeg 8.999367 -3.689276 4.391737
RightLeg -5.276806 -0.000000 0.000000
RightFoot -4.429854 -28.305665 3.713414
RightToeBase 13.691664 -0.000000 -0.000000
1778
root -5.358472 35.184967 -9.379372 -1.151859 -6.053839 -6.236228
Spine -1.680649 1.662222 10.648995
Head 5.917207 -4.989641 -11.877834
LeftShoulder -19.743267 13.553172 -17.081562
LeftArm 21.159002 -6.698718 -73.153103
LeftForeArm 14.345082 -0.000000 9.596051
LeftHand 0.391354 -0.000000 -6.216241
LeftHandThumb1 -26.253704 0.000000 33.147579
RightShoulder -4.238316 13.619543 -8.198101
RightArm -4.116514 71.265199 42.029684
RightForeArm 46.896459 0.000000 145.239143
RightHand 25.661484 -0.000000 10.419873
RightHandThumb1 -24.326973 -0.000000 -32.862282
LeftUpLeg 12.571480 14.515720 7.380075
LeftLeg -9.529094 -0.000000 0.000000
LeftFoot -16.405922 28.417102 -8.366510
LeftToeBase 22.806698 -0.000000 -0.000000
RightUpLeg 8.994563 -3.691086 4.396268
RightLeg -5.279951 -0.000000 0.000000
RightFoot -4.423301 -28.317938 3.701398
RightToeBase 13.666316 -0.000000 -0.000000
1779
root -5.358050 35.184456 -9.379874 -1.156145 -6.049166 -6.235780
Spine -1.686467 1.699205 10.635510
Head 5.919059 -5.003941 -11.856148
LeftShoulder -19.723361 13.556446 -17.066953
LeftArm 21.174355 -6.730867 -73.151605
LeftForeArm 14.352722 -0.000000 9.601095
LeftHand 0.470481 -0.000000 -6.040997
LeftHandThumb1 -26.253704 0.000000 33.147579
RightShoulder -4.100579 13.623859 -8.091489
RightArm -5.182674 71.232540 41.067287
RightForeArm 46.951990 -0.000000 143.947305
RightHand 25.241922 -0.000000 10.198842
RightHandThumb1 -24.326973 -0.000000 -32.862282
LeftUpLeg 12.577211 14.508335 7.378868
LeftLeg -9.536642 -0.000000 0.000000
LeftFoot -16.395634 28.414419 -8.358772
LeftToeBase 22.791518 -0.000000 -0.000000
RightUpLeg 9.003141 -3.685775 4.394528
RightLeg -5.288393 -0.000000 0.000000
RightFoot -4.430072 -28.323801 3.705358
RightToeBase 13.703922 -0.000000 -0.000000
1780
root -5.358220 35.184297 -9.380608 -1.152355 -6.044168 -6.240059
Spine -1.700524 1.721137 10.621800
Head 5.916229 -5.000733 -11.822801
LeftShoulder -19.713449 13.546118 -17.056344
LeftArm 21.164172 -6.615297 -73.069134
LeftForeArm 14.203628 -0.000000 9.605008
LeftHand 0.467364 -0.000000 -5.977307
LeftHandThumb1 -26.253704 0.000000 33.147579
RightShoulder -3.973649 13.614864 -7.973052
RightArm -6.160953 71.165740 40.199952
RightForeArm 46.888610 -0.000000 142.555681
RightHand 24.761216 -0.000000 10.099574
RightHandThumb1 -24.326973 -0.000000 -32.862282
LeftUpLeg 12.572821 14.488480 7.380807
LeftLeg -9.538115 -0.000000 0.000000
LeftFoot -16.400712 28.429833 -8.362062
LeftToeBase 22.807941 -0.000000 -0.000000
RightUpLeg 9.000020 -3.698364 4.397998
RightLeg -5.290165 -0.000000 0.000000
RightFoot -4.429738 -28.310262 3.718119
RightToeBase 13.659084 -0.000000 -0.000000
